<?xml version="1.0" encoding="utf-8"?>
<!-- Generator: Adobe Illustrator 23.0.5, SVG Export Plug-In . SVG Version: 6.00 Build 0)  -->
<svg version="1.1" id="Capa_1" xmlns="http://www.w3.org/2000/svg" xmlns:xlink="http://www.w3.org/1999/xlink" x="0px" y="0px"
	 viewBox="0 0 88 86" style="enable-background:new 0 0 88 86;" xml:space="preserve">
<style type="text/css">
	.st0{fill:none;stroke:#E8A231;stroke-width:2;stroke-miterlimit:10;}
	.st1{display:none;}
	.st2{display:inline;}
</style>
<circle class="st0" cx="44" cy="43" r="40.5"/>
<g id="Out_line" class="st1">
	<path class="st2" d="M28.3,57.2c-0.9-1.8-0.7-4,0.6-6.4c1.4-2.5,3.8-4.7,6.9-6.4c4.2-2.3,9-2.8,12.1-1.5l0.7-1.5
		c-3.6-1.6-8.8-1-13.5,1.5c-3.3,1.8-6,4.2-7.5,7c-1.6,2.9-1.8,5.7-0.6,8L28.3,57.2z"/>
	<circle class="st2" cx="48.1" cy="38.1" r="0.8"/>
	<circle class="st2" cx="64.3" cy="24.3" r="0.8"/>
	<circle class="st2" cx="51.3" cy="39.8" r="0.8"/>
	<path class="st2" d="M64.1,20.2c-1.1,0-2.2,0.4-3,1.2L58.6,24c-1,1-1.7,2.2-2.2,3.6l-0.4,1.2c-0.4,1.1-1,2.1-1.8,2.9
		c-1.1,1.1-2.5,1.8-4,2.1l-2.1,0.4c-0.9-0.3-1.9-0.5-2.8-0.6C41,33,36.1,34,31.6,36.3c-4.5,2.3-8.1,5.7-10.2,9.4
		c-2.2,3.9-2.4,7.7-0.8,10.9c0.4,0.8,0.9,1.5,1.5,2.1l1.4,1.6c3.4,3.9,8.6,5.9,13.7,5.2l1.5-0.2c6.7-0.8,12.6-4.8,16-10.6
		c2.5-4.4,2.7-9.6,0.7-14.2v-1c0-2.7,1.6-5.1,4.2-6.1l1.2-0.5c1-0.4,2-1,2.8-1.8l3.6-3.6c1.7-1.7,1.7-4.4,0-6
		C66.4,20.7,65.3,20.2,64.1,20.2L64.1,20.2z M22.9,46.6c1.9-3.5,5.3-6.6,9.5-8.8C35.9,36,39.7,35,43.1,35c0.7,0,1.3,0,2,0.1
		c3.5,0.4,6.1,1.8,7.6,4c0,0.1,0.1,0.1,0.1,0.2c0.1,0.2,0.3,0.4,0.4,0.6c1.4,2.6,1.1,6-0.8,9.4c-1.9,3.5-5.3,6.6-9.5,8.8
		c-4.2,2.2-8.7,3.1-12.7,2.7c-3.9-0.4-6.7-2.1-8.1-4.8C20.7,53.3,21,50,22.9,46.6z M53.3,54c-3.1,5.4-8.6,9.1-14.8,9.8L37.1,64
		c-3.2,0.4-6.5-0.3-9.3-2.1c0.7,0.2,1.5,0.3,2.2,0.4c0.7,0.1,1.4,0.1,2.1,0.1c3.7,0,7.7-1,11.5-3c4.5-2.3,8.1-5.7,10.2-9.4
		c0.6-1,1-2.1,1.4-3.2C55.2,49.3,54.5,51.8,53.3,54z M66,26.4L62.4,30c-0.6,0.6-1.4,1.1-2.2,1.5l-1.2,0.5c-2.6,1-4.5,3.3-5,6.1
		c-0.8-1.1-1.9-2.1-3.1-2.8c1.7-0.4,3.3-1.2,4.6-2.5c1-1,1.7-2.2,2.2-3.6L58,28c0.4-1.1,1-2.1,1.8-2.9l2.5-2.5c1-1,2.7-1,3.7,0
		C67,23.7,67,25.3,66,26.4L66,26.4L66,26.4z"/>
</g>
<g class="st1">
	<path class="st2" d="M64.3,43.8c0-1.9-1.5-3.4-3.4-3.4s-3.4,1.5-3.4,3.4s1.5,3.4,3.4,3.4C62.8,47.2,64.3,45.7,64.3,43.8z
		 M59.2,43.8c0-0.9,0.8-1.7,1.7-1.7s1.7,0.8,1.7,1.7s-0.8,1.7-1.7,1.7C60,45.5,59.3,44.8,59.2,43.8z"/>
	<path class="st2" d="M64.3,21.8c-2.8,0-5.1,2.3-5.1,5.1s2.3,5.1,5.1,5.1c2.8,0,5.1-2.3,5.1-5.1C69.4,24.1,67.1,21.8,64.3,21.8z
		 M64.3,30.3c-1.9,0-3.4-1.5-3.4-3.4s1.5-3.4,3.4-3.4c1.9,0,3.4,1.5,3.4,3.4C67.7,28.8,66.2,30.3,64.3,30.3z"/>
	<path class="st2" d="M52.5,38.8c2.3,0,4.2-1.9,4.2-4.2c0-2.3-1.9-4.2-4.2-4.2c-2.3,0-4.2,1.9-4.2,4.2
		C48.2,36.9,50.1,38.8,52.5,38.8z M52.5,32c1.4,0,2.5,1.1,2.5,2.5c0,1.4-1.1,2.5-2.5,2.5c-1.4,0-2.5-1.1-2.5-2.5
		C49.9,33.1,51.1,32,52.5,32z"/>
	<path class="st2" d="M40.6,40.5H30.4c-0.5,0-0.8,0.4-0.8,0.8v5.1c0,0.5,0.4,0.8,0.8,0.8h10.2c0.5,0,0.8-0.4,0.8-0.8v-5.1
		C41.5,40.8,41.1,40.5,40.6,40.5z M39.8,45.5h-8.5v-3.4h8.5V45.5z"/>
	<path class="st2" d="M68.6,62.5h-6.2c3.3-2.6,3.8-7.4,1.2-10.7c-1.4-1.8-3.6-2.8-5.9-2.8c-0.9,0-1.7,0.2-2.5,0.4
		c-1,0.2-2.1,0.5-3.4,0.5c-1.3,0-2.4-0.2-3.4-0.5c-0.9-0.2-1.7-0.4-2.5-0.4V36.2c0-2.3-1.9-4.2-4.2-4.2h-0.8v-2.5
		c0-0.5-0.4-0.8-0.8-0.8h-1.7v-5.1h3.4v2.5c0,0.5,0.4,0.8,0.8,0.8h3.4c0.5,0,0.8-0.4,0.8-0.8v-3.4c0-2.3-1.9-4.2-4.2-4.2H32.1
		c-1.4,0-2.5,1.1-2.5,2.5v1.7c0,0.5,0.4,0.8,0.8,0.8H33v5.1h-1.7c-0.5,0-0.8,0.4-0.8,0.8V32h-0.8c-2.3,0-4.2,1.9-4.2,4.2v23.7
		c0,0.9,0.3,1.8,0.8,2.5h-6.8c-0.5,0-0.8,0.4-0.8,0.8c0,2.3,1.9,4.2,4.2,4.2h42.4c2.3,0,4.2-1.9,4.2-4.2
		C69.4,62.9,69,62.5,68.6,62.5z M47.9,51c1.1,0.2,2.3,0.5,3.8,0.5c1.5,0,2.7-0.3,3.8-0.5c0.8-0.2,1.5-0.3,2.2-0.3
		c3.3,0,5.9,2.7,5.9,5.9s-2.7,5.9-5.9,5.9H45.7c-3.3,0-5.9-2.7-5.9-5.9s2.7-5.9,5.9-5.9C46.4,50.6,47.1,50.8,47.9,51z M38.1,56.6
		c0,0.3,0,0.6,0,0.8H27.1V38.8H44v10.4C40.5,49.9,38.1,53,38.1,56.6z M31.3,21c0-0.5,0.4-0.8,0.8-0.8h10.2c1.4,0,2.5,1.1,2.5,2.5
		v2.5h-1.7v-2.5c0-0.5-0.4-0.8-0.8-0.8h-11V21z M34.7,23.5h1.7v5.1h-1.7V23.5z M32.1,30.3h6.8V32h-6.8V30.3z M29.6,33.7h11.9
		c1.4,0,2.5,1.1,2.5,2.5v0.8H27.1v-0.8C27.1,34.8,28.2,33.7,29.6,33.7z M27.1,59.9v-0.8h11.5c0.5,1.3,1.3,2.5,2.4,3.4H29.6
		C28.2,62.5,27.1,61.3,27.1,59.9z M65.2,65.9H22.8c-1.1,0-2-0.7-2.4-1.7h47.2C67.2,65.2,66.3,65.9,65.2,65.9z"/>
	<path class="st2" d="M44.8,53.2c0,0.5,0.4,0.8,0.8,0.8c0.7,0,1.4,0.2,2.2,0.3c1.1,0.2,2.3,0.5,3.8,0.5c1.5,0,2.7-0.3,3.8-0.5
		c0.8-0.2,1.5-0.3,2.2-0.3c0.5,0,0.8-0.4,0.8-0.8c0-0.5-0.4-0.8-0.8-0.8c-0.9,0-1.7,0.2-2.5,0.4c-1,0.2-2.1,0.5-3.4,0.5
		c-1.3,0-2.4-0.2-3.4-0.5c-0.9-0.2-1.7-0.4-2.5-0.4C45.2,52.3,44.8,52.7,44.8,53.2z"/>
</g>
<g class="st1">
	<path class="st2" d="M67,31.8h-0.2c-1.3-3.9-1.6-10.1-6.5-10.2H27.7c-4.9,0-5.3,6.3-6.5,10.2c-1.8-0.1-3.3,1.3-3.3,3.1v3.1
		c0,0.6,0.5,1,1,1h1.7l0.3,2h-1.5c-0.6,0-1,0.5-1,1s0.5,1,1,1h1.8l2.4,16.4c0.4,2.9,2.5,4.9,5.1,4.9h30.5c2.6,0,4.7-2,5.1-4.9
		L66.7,43h1.8c0.6,0,1-0.5,1-1s-0.5-1-1-1H67l0.3-2H69c0.6,0,1-0.5,1-1v-3.1C70,33.2,68.7,31.8,67,31.8z M24.6,27
		c0.4-1.5,1.3-3.3,3.1-3.3h32.6c1.8,0,2.7,1.8,3.1,3.3l1.3,4.8H23.3L24.6,27z M52.1,62.3H35.9V44c0-0.6,0.5-1,1-1h14.2
		c0.6,0,1,0.5,1,1V62.3z M65,41h-0.8c-1.3,0-1.3,2,0,2h0.5l-2.4,16.1c-0.2,1.6-1.3,3.2-3.1,3.2h-5.1V44c0-1.7-1.4-3.1-3.1-3.1H36.9
		c-1.7,0-3.1,1.4-3.1,3.1v18.3h-5.1c-1.8,0-2.8-1.6-3.1-3.2L23.3,43h0.5c1.3,0,1.3-2,0-2H23l-0.3-2h42.6L65,41z M68,36.9H20v-2
		c0-0.6,0.5-1,1-1h46c0.6,0,1,0.5,1,1V36.9z"/>
	<path class="st2" d="M48.6,51.2c1.1-0.7,0.2-2.4-1-1.8l-0.8,0.4l-1.8-1V48c0-0.6-0.5-1-1-1c-0.6,0-1,0.5-1,1v0.9l-1.8,1l-0.8-0.4
		c-0.5-0.3-1.1-0.1-1.4,0.4c-0.3,0.5-0.1,1.1,0.4,1.4l0.8,0.4v2.1l-0.8,0.4c-0.5,0.3-0.7,0.9-0.4,1.4c0.3,0.5,0.9,0.7,1.4,0.4
		l0.8-0.4l1.8,1v0.9c0,0.6,0.5,1,1,1c0.6,0,1-0.5,1-1v-0.9l1.8-1l0.8,0.4c0.5,0.3,1.1,0.1,1.4-0.4c0.3-0.5,0.1-1.1-0.4-1.4l-0.8-0.4
		v-2.1L48.6,51.2z M44,54.7l-1.8-1v-2.1l1.8-1l1.8,1v2.1L44,54.7z"/>
</g>
<g class="st1">
	<g class="st2">
		<path d="M63.4,42.6c1.7-5.7,1.1-11,1.1-11.2c0,0,0,0,0,0c0,0,0-0.1,0-0.1c0,0,0,0,0,0c0,0,0,0,0-0.1c0,0,0,0,0,0c0,0,0,0,0-0.1
			c0,0,0,0,0,0c0,0,0,0,0-0.1c0,0,0,0,0,0c0,0,0,0,0-0.1c0,0,0,0,0,0c0,0,0,0-0.1-0.1c0,0,0,0,0,0c0,0,0,0-0.1,0c0,0,0,0,0,0
			c0,0,0,0,0,0c0,0,0,0,0,0c0,0,0,0,0,0c0,0,0,0,0,0c0,0,0,0,0,0c0,0,0,0,0,0c0,0,0,0-0.1,0c0,0,0,0,0,0c-0.1,0-0.1,0-0.2,0
			c0,0,0,0,0,0c0,0,0,0-0.1,0c0,0,0,0,0,0c0,0,0,0-0.1,0c0,0,0,0,0,0c0,0,0,0-0.1,0c0,0,0,0,0,0c0,0-0.1,0-0.1,0c0,0,0,0,0,0
			c-0.1,0-1.1,0.5-3.5,1.9c1.4-5.8,0-10.1-0.2-10.6c0,0,0,0,0,0c0,0,0,0,0,0c0,0,0,0,0,0c0,0,0,0,0,0c0,0,0,0,0,0c0,0,0,0,0,0
			c0,0,0,0,0,0c0,0,0,0,0,0c0,0,0,0,0,0c0,0,0,0,0,0c0,0,0,0,0,0c0,0,0,0,0,0c0,0,0,0,0,0c0,0,0,0,0,0c0,0,0,0,0,0c0,0,0,0,0,0
			c0,0,0,0,0,0c0,0,0,0,0,0c0,0,0,0,0,0c0,0,0,0,0,0c0,0,0,0,0,0c0,0,0,0,0,0c0,0,0,0,0,0c0,0,0,0,0,0c0,0,0,0,0,0c0,0,0,0,0,0
			c0,0,0,0,0,0c0,0,0,0,0,0c0,0,0,0,0,0c0,0,0,0,0,0c0,0,0,0,0,0c0,0,0,0,0,0c0,0,0,0,0,0c0,0,0,0,0,0c-0.5,0.2-4.5,1.6-8,5.9
			c-2.3-6.2-5.7-9.7-6.3-10.2c0,0,0,0,0,0c0,0,0,0,0,0c0,0,0,0,0,0c0,0,0,0,0,0c0,0,0,0,0,0c0,0,0,0,0,0c0,0,0,0,0,0c0,0,0,0,0,0
			c0,0,0,0,0,0c0,0,0,0,0,0c0,0,0,0,0,0c0,0,0,0,0,0c0,0,0,0,0,0c0,0,0,0,0,0c0,0,0,0-0.1,0c0,0,0,0,0,0c0,0,0,0,0,0c0,0,0,0-0.1,0
			c0,0,0,0,0,0c0,0,0,0,0,0c0,0,0,0,0,0c0,0,0,0,0,0c0,0,0,0,0,0c0,0,0,0,0,0c0,0,0,0,0,0c0,0,0,0,0,0c0,0,0,0,0,0c0,0,0,0,0,0
			c0,0,0,0,0,0c0,0,0,0,0,0c0,0,0,0,0,0c0,0,0,0,0,0c-0.5,0.5-3.9,4-6.3,10.2c-3.6-4.3-7.5-5.7-8-5.9c0,0,0,0,0,0c0,0,0,0,0,0
			c0,0,0,0,0,0c0,0,0,0,0,0c0,0,0,0,0,0c0,0,0,0,0,0c0,0,0,0-0.1,0c0,0,0,0,0,0c0,0,0,0,0,0c0,0,0,0,0,0c0,0,0,0,0,0c0,0,0,0,0,0
			c0,0,0,0,0,0c0,0,0,0,0,0c0,0,0,0,0,0c0,0,0,0,0,0c0,0,0,0,0,0c0,0,0,0,0,0c0,0,0,0,0,0c0,0,0,0,0,0c0,0,0,0,0,0c0,0,0,0,0,0
			c0,0,0,0,0,0c0,0,0,0,0,0c0,0,0,0,0,0c0,0,0,0,0,0c0,0,0,0,0,0c0,0,0,0,0,0c0,0,0,0,0,0c0,0,0,0,0,0c0,0,0,0,0,0c0,0,0,0,0,0
			c0,0,0,0,0,0c0,0,0,0,0,0c-0.2,0.5-1.7,4.8-0.2,10.6c-2.4-1.3-3.4-1.8-3.5-1.9c0,0,0,0,0,0c0,0-0.1,0-0.1,0c0,0,0,0,0,0
			c0,0,0,0-0.1,0c0,0,0,0,0,0c0,0,0,0-0.1,0c0,0,0,0,0,0c0,0,0,0-0.1,0c0,0,0,0,0,0c-0.1,0-0.1,0-0.2,0c0,0,0,0,0,0c0,0,0,0-0.1,0
			c0,0,0,0,0,0c0,0,0,0,0,0c0,0,0,0,0,0c0,0,0,0,0,0c0,0,0,0,0,0c0,0,0,0,0,0c0,0,0,0,0,0c0,0,0,0-0.1,0c0,0,0,0,0,0
			c0,0,0,0-0.1,0.1c0,0,0,0,0,0c0,0,0,0,0,0.1c0,0,0,0,0,0c0,0,0,0,0,0c0,0,0,0,0,0c0,0,0,0,0,0.1c0,0,0,0,0,0c0,0,0,0,0,0.1
			c0,0,0,0,0,0c0,0,0,0.1,0,0.1c0,0,0,0,0,0c0,0.2-0.6,5.5,1.1,11.2c0.8,2.9,2.7,5.3,5.1,7c-0.9,0.5-1.5,1.4-1.5,2.5
			c0,1.4,1.1,2.6,2.5,2.7l1.6,8.8c0.6,3.1,3.3,5.3,6.4,5.3h10.5c3.1,0,5.8-2.2,6.4-5.3l1.6-8.8h0.9c1.5,0,2.8-1.2,2.8-2.8
			c0-1.4-1-2.5-2.4-2.7C60.9,47.7,62.6,45.4,63.4,42.6z M58.1,33.8c-1.2,0.7-2.7,1.7-4.5,2.8c0,0,0,0,0,0c-0.2,0.1-0.4,0.3-0.6,0.4
			c0,0,0,0,0,0c0-0.1,0-0.1,0-0.2c0-0.2,0-0.3,0-0.5c1.8-3.7,3.8-7.7,6-12C59.2,26.4,59.4,29.8,58.1,33.8z M57.3,23.9
			c-1.8,3.4-3.4,6.7-4.9,9.7c-0.3-1.6-0.7-3.1-1.1-4.5C53.4,26.4,55.7,24.8,57.3,23.9z M49.8,29.2C49.8,29.2,49.8,29.3,49.8,29.2
			c0.8,2.6,1.4,5.3,1.6,8c0,0,0,0,0,0.1c0,0.2,0,0.3,0,0.5c0,0,0,0.1,0,0.1c0,0,0,0.1,0,0.1c-2.5,1.8-4.5,4.2-6,7.2c0,0,0,0,0,0
			c-0.1,0.1-0.1,0.2-0.2,0.3c0,0,0,0,0,0.1c-0.1,0.1-0.1,0.2-0.2,0.3c0,0,0,0,0,0.1c-0.1,0.2-0.2,0.3-0.2,0.5V19.8
			c0.8,0.9,1.7,2.3,2.7,4.1C48.4,25.6,49.2,27.4,49.8,29.2z M38.2,29.3C38.2,29.3,38.2,29.2,38.2,29.3c0.6-1.9,1.4-3.7,2.3-5.4
			c1-1.8,2-3.2,2.7-4.1v26.8c-0.1-0.2-0.2-0.3-0.2-0.5c0,0,0,0,0-0.1c-0.1-0.1-0.1-0.2-0.2-0.3c0,0,0,0,0-0.1
			c-0.1-0.1-0.1-0.2-0.2-0.3c0,0,0,0,0,0c-1.6-3-3.6-5.4-6-7.2c0,0,0-0.1,0-0.1c0,0,0-0.1,0-0.1c0-0.2,0-0.3,0-0.5c0,0,0,0,0-0.1
			C36.8,34.5,37.4,31.8,38.2,29.3z M36.6,29.2c-0.4,1.4-0.8,2.9-1.1,4.5c-1.5-3.1-3.1-6.3-4.9-9.7C32.3,24.8,34.6,26.4,36.6,29.2z
			 M29.2,24.4c2.2,4.2,4.2,8.3,6,12c0,0.2,0,0.3,0,0.5c0,0.1,0,0.1,0,0.2c0,0,0,0,0,0c-0.2-0.1-0.4-0.3-0.6-0.4c0,0,0,0,0,0
			c-1.7-1.1-3.2-2-4.5-2.8C28.6,29.8,28.8,26.4,29.2,24.4z M31.3,36.4c0.1,0,0.1,0.1,0.2,0.1c0.2,0.1,0.3,0.2,0.5,0.3
			c0.1,0.1,0.3,0.2,0.4,0.2c0.1,0.1,0.2,0.1,0.3,0.2c0.2,0.1,0.4,0.2,0.5,0.3c0.1,0,0.1,0.1,0.2,0.1c0.2,0.1,0.4,0.3,0.7,0.4
			c0.1,0,0.1,0.1,0.2,0.1c0.2,0.2,0.5,0.3,0.7,0.5c0.1,0.1,0.2,0.1,0.3,0.2c0.1,0,0.1,0.1,0.2,0.1c0,0,0,0,0,0c0,0,0,0,0,0
			c3.1,2.1,5.4,5.3,7,9.4c0,0,0,0.1,0,0.1c0,0.1,0.1,0.2,0.1,0.4c0,0.1,0,0.1,0.1,0.2c0,0.1,0.1,0.2,0.1,0.3h-0.9
			c-5.1-2.3-9.4-7.1-12.1-10.7c-1.5-2-2.7-3.9-3.5-5.3C27.3,34,29,35,31.3,36.4z M26.1,42.2c-0.9-3-1.1-5.9-1.1-7.9
			c0.8,1.4,2,3.2,3.5,5.2c3.3,4.4,6.7,7.6,10.1,9.8h-6.2C29.3,48,27,45.4,26.1,42.2z M59.5,52.1c0,0.7-0.6,1.2-1.2,1.2H40.4
			c-0.4,0-0.8,0.3-0.8,0.8s0.3,0.8,0.8,0.8h15.4l-1.6,8.5c-0.4,2.4-2.5,4.1-4.9,4.1H38.8c-2.4,0-4.5-1.7-4.9-4.1l-1.6-8.5h2.7
			c0.4,0,0.8-0.3,0.8-0.8s-0.3-0.8-0.8-0.8H31c0,0,0,0,0,0c-0.7,0-1.2-0.6-1.2-1.2s0.6-1.2,1.2-1.2h27.3
			C58.9,50.8,59.5,51.4,59.5,52.1z M55.6,49.3h-6.2c3.2-2,6.4-5,9.5-9c0.3-0.3,0.2-0.8-0.1-1.1c-0.3-0.3-0.8-0.2-1.1,0.1
			c-3.7,4.8-7.6,8.1-11.5,9.9c0,0,0,0,0,0h-0.9c0-0.1,0.1-0.2,0.1-0.3c0-0.1,0-0.1,0.1-0.2c0-0.1,0.1-0.2,0.1-0.4c0,0,0-0.1,0-0.1
			c1.6-4.2,3.9-7.3,7-9.4c0,0,0,0,0,0c0,0,0,0,0,0c0.1,0,0.1-0.1,0.2-0.1c0.1-0.1,0.2-0.1,0.3-0.2c0.2-0.2,0.5-0.3,0.7-0.5
			c0.1,0,0.1-0.1,0.2-0.1c0.2-0.1,0.4-0.3,0.6-0.4c0.1,0,0.1-0.1,0.2-0.1c0.2-0.1,0.4-0.2,0.5-0.3c0.1-0.1,0.2-0.1,0.3-0.2
			c0.1-0.1,0.2-0.2,0.4-0.2c0.2-0.1,0.4-0.2,0.5-0.3c0.1,0,0.1-0.1,0.2-0.1c2.3-1.4,3.9-2.4,5.1-3c-0.3,0.5-0.6,1-1,1.7
			c-0.2,0.4-0.1,0.8,0.2,1c0.1,0.1,0.3,0.1,0.4,0.1c0.2,0,0.5-0.1,0.6-0.3c0.4-0.6,0.7-1.1,1-1.6c0,2-0.3,4.9-1.1,7.9
			C61,45.4,58.7,48,55.6,49.3z"/>
	</g>
</g>
<g class="st1">
	<path class="st2" d="M44,18c-13.8,0-25,11.2-25,25s11.2,25,25,25s25-11.2,25-25S57.8,18,44,18z M44,66.3
		c-12.9,0-23.3-10.5-23.3-23.3S31.1,19.7,44,19.7S67.3,30.1,67.3,43S56.9,66.3,44,66.3z"/>
	<path class="st2" d="M30.1,28.6L29,27.4c-0.5,0.5-1,1-1.4,1.5l1.3,1.1C29.2,29.5,29.7,29,30.1,28.6z"/>
	<path class="st2" d="M22.4,41.3l1.7,0.1c0.3-3.6,1.5-7,3.6-9.9l-1.4-1C24.1,33.7,22.7,37.4,22.4,41.3L22.4,41.3z"/>
	<path class="st2" d="M55.7,26.6c0-2-1.6-3.6-3.6-3.6c-1.7,0-3.2,1.2-3.5,2.8c-0.1,0.6-0.3,1.3-0.4,1.9c-1.4-0.4-2.8-0.6-4.2-0.6V23
		h-1.7v10c0,0.9-0.3,1.8-0.8,2.5c-0.2,0.3-0.5,0.6-0.9,0.8c-1,0.8-1.6,2-1.6,3.4l0.8,19.1c0,0.4-0.1,0.8-0.4,1.2
		c-0.6,0.6-1.6,0.6-2.3,0c-0.3-0.3-0.5-0.7-0.4-1.2l0.6-19.1c0-1.4-0.5-2.6-1.6-3.4c-0.3-0.2-0.6-0.5-0.9-0.8
		C34.3,34.8,34,33.9,34,33V23h-1.7v9.3c-5.9,6.4-5.5,16.4,0.9,22.3c0.6,0.5,1.2,1,1.8,1.4L35,58.8c-0.1,1.8,1.3,3.3,3.1,3.4
		c1.8,0.1,3.3-1.3,3.4-3.1c0-0.1,0-0.2,0-0.2l0-0.2c2.6,0.4,5.3,0.2,7.7-0.7l-0.1,0.8c-0.1,1.8,1.2,3.3,3,3.5c1.8,0.1,3.3-1.2,3.5-3
		c0-0.1,0-0.1,0-0.2v-5.2c5.6-6,5.6-15.3,0-21.4V26.6z M35.2,54c-5.9-4.7-7.1-13.3-2.6-19.4c0.3,1.2,1.1,2.3,2.1,3.1
		c0.6,0.4,0.9,1.2,0.9,2L35.2,54z M49.4,56.1c-2.5,1.1-5.3,1.3-7.9,0.8l-0.7-17.2c0-0.8,0.3-1.6,0.9-2c0.5-0.3,0.9-0.7,1.2-1.2
		c0.8-1,1.2-2.2,1.2-3.5v-4.2c1.3,0,2.6,0.2,3.9,0.5c-0.4,2.4-0.6,4.9-0.6,7.4v8.7c0,0.5,0.4,0.8,0.8,0.8h1.9L49.4,56.1z M54,58.9
		c0,0.9-0.7,1.6-1.6,1.6c-0.9,0-1.6-0.7-1.6-1.6c0,0,0-0.1,0-0.1l1-13.3c0-0.5-0.3-0.9-0.8-0.9c0,0,0,0-0.1,0h-2v-7.9
		c0-3.6,0.4-7.1,1.2-10.6c0.2-1,1.3-1.7,2.3-1.5c0.9,0.2,1.5,1,1.5,1.9V58.9z M58.2,43c0,2.9-0.9,5.7-2.5,8V35
		C57.3,37.3,58.2,40.1,58.2,43z"/>
	<path class="st2" d="M35.7,23h1.7v9.2h-1.7V23z"/>
	<path class="st2" d="M39,23h1.7v9.2H39V23z"/>
</g>
<g class="st1">
	<path class="st2" d="M58.7,32c0,0.4,0.4,0.7,0.8,0.7c0.4,0,0.9-0.1,1.3-0.1c0.2,0,0.5-0.2,0.6-0.4c0.4-0.8,1.3-1.3,2.2-1.3
		c2.5,0,3.4,3.4,1.2,4.6c-0.2,0.1-0.4,0.3-0.4,0.6c-0.3,2.8-0.5,6-0.5,9.4c0,0.4,0.3,0.7,0.7,0.7c0.4,0,0.7-0.3,0.7-0.7
		c0.1-3.3,0.2-6.3,0.5-9c1.1-0.7,1.7-1.9,1.7-3.2c0-3.9-5-5.4-7.2-2.2c-0.3,0-0.6,0.1-0.9,0.1C58.9,31.2,58.6,31.5,58.7,32L58.7,32z
		"/>
	<path class="st2" d="M65.7,60.7c-0.4-3.6-0.5-7.6-0.5-12.1c0-1-1.4-1-1.5,0c0,4.7,0.2,8.9,0.6,12.6c0,0.2,0.2,0.5,0.4,0.6
		c0.8,0.4,1.3,1.3,1.3,2.2c0,2.5-3.4,3.4-4.6,1.2c-0.1-0.2-0.3-0.4-0.6-0.4c-4.9-0.5-11.8-0.7-17.3-0.5c-0.4,0-0.7,0.3-0.7,0.8
		c0,0.4,0.3,0.7,0.8,0.7c5.4-0.2,12,0,16.8,0.5c0.7,1.1,1.9,1.7,3.2,1.7C67.3,67.9,68.8,62.9,65.7,60.7L65.7,60.7z"/>
	<path class="st2" d="M40,64.4c-1.6,0.1-3.1,0.2-4.5,0.4c-0.2,0-0.5,0.2-0.6,0.4c-0.4,0.8-1.3,1.3-2.2,1.3c-2.5,0-3.4-3.4-1.2-4.6
		c0.2-0.1,0.4-0.3,0.4-0.6c0.1-1.2,0.2-2.5,0.3-3.9c0-0.4-0.3-0.7-0.7-0.8c-0.4,0-0.7,0.3-0.8,0.7c-0.1,1.2-0.2,2.4-0.3,3.5
		c-1.1,0.7-1.7,1.9-1.7,3.2c0,3.9,5,5.4,7.2,2.2c1.3-0.1,2.7-0.2,4.1-0.3c0.4,0,0.7-0.4,0.7-0.8C40.8,64.7,40.4,64.4,40,64.4
		L40,64.4z"/>
	<path class="st2" d="M52,54.9c0.7,1.1,1.9,1.7,3.2,1.7c3.9,0,5.4-5,2.2-7.2c-0.7-6.9-0.7-17.3,0-24.2c1.1-0.7,1.7-1.9,1.7-3.2
		c0-3.9-5-5.4-7.2-2.2c-5.2,0.5-12.6,0.7-18.3,0.4c-1,0-1,1.4-0.1,1.5c5.9,0.3,13.6,0.1,18.9-0.4c0.2,0,0.5-0.2,0.6-0.4
		c0.4-0.8,1.3-1.3,2.2-1.3c2.5,0,3.4,3.4,1.2,4.6c-0.2,0.1-0.4,0.3-0.4,0.6c-0.8,7.2-0.8,18.1,0,25.2c0,0.2,0.2,0.5,0.4,0.6
		c0.8,0.4,1.3,1.3,1.3,2.2c0,2.5-3.4,3.4-4.6,1.2c-0.1-0.2-0.3-0.4-0.6-0.4c-7.2-0.8-18.1-0.8-25.2,0c-0.2,0-0.5,0.2-0.6,0.4
		c-0.4,0.8-1.3,1.3-2.2,1.3c-2.5,0-3.4-3.4-1.2-4.6c0.2-0.1,0.4-0.3,0.4-0.6c0.8-7.2,0.8-18.1,0-25.2c0-0.2-0.2-0.5-0.4-0.6
		c-0.8-0.4-1.3-1.3-1.3-2.2c0-2.5,3.4-3.4,4.6-1.2c0.1,0.2,0.3,0.4,0.6,0.4c1,0.1,2,0.2,3,0.3c1,0,1.1-1.4,0.1-1.5
		c-0.9-0.1-1.8-0.1-2.6-0.2c-0.7-1.1-1.9-1.7-3.2-1.7c-3.9,0-5.4,5-2.2,7.2c0.7,6.9,0.7,17.3,0,24.2c-1.1,0.7-1.7,1.9-1.7,3.2
		c0,3.9,5,5.4,7.2,2.2C34.7,54.2,45.1,54.2,52,54.9L52,54.9z"/>
	<path class="st2" d="M51.6,30.3c-0.2-0.3-0.7-0.4-1-0.2c-1.2,0.8-1.8,0.5-3.4-0.6c-4.3-3.2-10.5-3.2-14.8,0c-1.6,1-2.2,1.3-3.4,0.6
		c-0.3-0.2-0.8-0.1-1,0.2c-0.2,0.3-0.1,0.8,0.2,1c2,1.3,3.5,0.4,4.9-0.6c3.9-2.9,9.3-2.9,13.2,0c1.6,1.1,3.1,1.8,4.9,0.6
		C51.7,31.1,51.8,30.6,51.6,30.3z"/>
	<path class="st2" d="M28.1,44.5c0.2,0.3,0.7,0.4,1,0.2c1.2-0.8,1.8-0.5,3.4,0.6c2.7,2,7.1,3.2,11.5,1.7c0.4-0.1,0.6-0.6,0.4-0.9
		c-0.1-0.4-0.6-0.6-0.9-0.4c-3.9,1.3-7.7,0.3-10.2-1.6c-1.5-1-2.9-1.9-4.9-0.6C28,43.7,27.9,44.1,28.1,44.5L28.1,44.5z"/>
	<path class="st2" d="M46,45.2c0.2,0.3,0.7,0.4,1,0.2l0.2-0.1c1.6-1,2.2-1.3,3.4-0.6c0.3,0.2,0.8,0.1,1-0.2c0.2-0.3,0.1-0.8-0.2-1
		c-2-1.3-3.5-0.4-4.9,0.6l-0.2,0.1C45.9,44.4,45.8,44.9,46,45.2z"/>
</g>
<g class="st1">
	<path class="st2" d="M66.1,29.4h-3.7c0.1-0.2,0.2-0.3,0.3-0.5c0.5-1,0.6-2.1,0.2-3.1l-1.1-3c-0.4-1-1.2-1.8-2.2-2.2
		c-1-0.4-2.1-0.4-3.1,0.1l-8.9,4.2c-0.4-0.3-1-0.5-1.6-0.5h-4c-0.6,0-1.1,0.2-1.6,0.5l-8.9-4.2c-1-0.5-2.1-0.5-3.1-0.1
		c-1,0.4-1.8,1.2-2.2,2.2l-1.1,3c-0.4,1-0.3,2.1,0.2,3.1c0.1,0.2,0.2,0.3,0.3,0.5h-3.7c-0.4,0-0.7,0.3-0.7,0.7v5.1
		c0,0.4,0.3,0.7,0.7,0.7s0.7-0.3,0.7-0.7v-4.4h4.9c0.1,0,0.2,0.1,0.2,0.1l5.9,1.6c-1.3,2-2.5,4.1-3.5,6.3h-7.6v-0.8
		c0-0.4-0.3-0.7-0.7-0.7s-0.7,0.3-0.7,0.7v1.5c0,0.4,0.3,0.7,0.7,0.7h2.5V65c0,0.4,0.3,0.7,0.7,0.7h37.7c0.4,0,0.7-0.3,0.7-0.7V61
		c0-0.4-0.3-0.7-0.7-0.7c-0.4,0-0.7,0.3-0.7,0.7v3.4H48.2V40.6c2,3.8,3.3,7.9,4,12.1c0,0.3,0.2,0.5,0.5,0.6c0.1,0,0.1,0,0.2,0
		c0.2,0,0.4-0.1,0.6-0.3c1-1.3,1.9-2.8,2.8-4.3c1.4,1,2.8,2,4.1,3.2c0.2,0.2,0.5,0.2,0.8,0.1c0.3-0.1,0.4-0.4,0.4-0.7
		c-0.6-3.8-1.6-7.6-3.1-11.2h3.7v18c0,0.4,0.3,0.7,0.7,0.7c0.4,0,0.7-0.3,0.7-0.7v-18h2.5c0.4,0,0.7-0.3,0.7-0.7v-9.4
		C66.8,29.7,66.4,29.4,66.1,29.4z M57,21.9c0.6-0.3,1.3-0.3,2-0.1c0.6,0.3,1.1,0.8,1.4,1.4l1.1,3c0.2,0.7,0.2,1.3-0.1,2
		c-0.3,0.6-0.9,1.1-1.5,1.2l-11.2,3.1v-3.4c2.5-1.5,8.8-4.7,10.3-2.5c0.2,0.3,0.7,0.4,1,0.2c0.3-0.2,0.4-0.7,0.2-1
		c-1.2-1.7-3.7-1.8-7.5-0.2c-1.6,0.6-3,1.4-3.9,1.9V27c0-0.4-0.1-0.7-0.2-1.1L57,21.9z M42,25.8h4c0.7,0,1.3,0.6,1.3,1.3v5.8
		c0,0.7-0.6,1.3-1.3,1.3h-4c-0.7,0-1.3-0.6-1.3-1.3V27C40.7,26.3,41.3,25.8,42,25.8z M40.8,38.8c0.7-1.1,1.4-2.2,2.2-3.2h2
		c0.8,1,1.5,2.1,2.2,3.2H40.8z M26.6,28.2c-0.3-0.6-0.4-1.3-0.1-2l1.1-3c0.2-0.6,0.7-1.2,1.4-1.4c0.6-0.3,1.3-0.2,2,0.1l8.6,4.1
		c-0.1,0.3-0.2,0.7-0.2,1.1v0.6c-0.9-0.5-2.4-1.3-4-2c-3.8-1.5-6.3-1.5-7.5,0.2c-0.2,0.3-0.1,0.8,0.2,1c0.3,0.2,0.8,0.1,1-0.2
		c1.6-2.2,7.9,1,10.4,2.6v3.3l-11.2-3.1C27.5,29.3,26.9,28.9,26.6,28.2z M39.6,34.1c0.3,0.7,1,1.1,1.7,1.3
		c-3.3,4.6-5.5,9.9-6.6,15.4c-0.7-1.1-1.4-2.2-2.1-3.4c-0.1-0.2-0.3-0.3-0.4-0.3c-0.2,0-0.4,0-0.6,0.1c-1.2,0.8-2.3,1.6-3.4,2.5
		c1.1-6,3.5-11.7,6.9-16.8L39.6,34.1z M25.9,40.2h3.7c-1.5,3.6-2.5,7.3-3.1,11.2c0,0.3,0.1,0.6,0.4,0.7c0.3,0.1,0.6,0.1,0.8-0.1
		c1.3-1.2,2.7-2.2,4.1-3.2c0.8,1.5,1.8,2.9,2.8,4.3c0.1,0.2,0.3,0.3,0.6,0.3c0.1,0,0.1,0,0.2,0c0.3-0.1,0.5-0.3,0.5-0.6
		c0.6-4.2,2-8.3,4-12.1v23.7H25.9V40.2z M41.2,64.3V40.2h5.6v24.2H41.2z M56.4,47.2C56.2,47,56,47,55.8,47.1c-0.2,0-0.4,0.2-0.4,0.3
		c-0.6,1.2-1.3,2.3-2.1,3.4C52.2,45.3,50,40,46.7,35.4c0.7-0.2,1.3-0.7,1.7-1.3l4.6-1.3c3.4,5.1,5.7,10.8,6.9,16.8
		C58.7,48.8,57.5,47.9,56.4,47.2z M65.4,38.8h-7.6c-1-2.2-2.1-4.3-3.5-6.3l5.9-1.6c0.1,0,0.2,0,0.2-0.1h4.9V38.8z"/>
</g>
<g id="Page-1_1_">
	<g>
		<path id="Shape_1_" d="M27.1,63.3c1.4,0,2.7-0.4,3.9-1.1c0.2,0.1,0.4,0.2,0.6,0.2c0.3,1.4,0.8,2.7,1.5,3.9
			c0.2,0.2,0.4,0.4,0.7,0.4c2.1-0.1,4.1-1.1,5.6-2.6c0.9,1.8,2.3,3.3,4.2,4.2c0.2,0.1,0.5,0.1,0.7,0c1.8-0.9,3.3-2.3,4.2-4.2
			c1.5,1.5,3.5,2.4,5.6,2.6c0.3,0,0.5-0.1,0.7-0.4c0.8-1.2,1.3-2.5,1.5-3.9c0.2-0.1,0.4-0.1,0.6-0.2c1.2,0.8,2.5,1.2,3.9,1.1
			c2.4,0,4.5-1.7,5-4c0.1-0.4-0.1-0.8-0.4-0.9c-2.7-1.5-5.1-3.5-6.9-6c1.1-0.8,1.9-1.9,2.3-3.2c0.1-0.4-0.1-0.8-0.5-1
			c-2-0.8-3.9-2-5.3-3.7c1.5-0.4,2.7-1.5,3.2-2.9c0.1-0.4-0.1-0.9-0.5-1c-2.4-1-4.4-2.6-6.1-4.5c1.4-0.4,2.6-1.5,3.2-2.8
			c0.2-0.4,0-0.9-0.5-1.1c-2.2-0.9-4.2-2.2-6-3.8l-0.3-1.9l2.3-2.3c0.3-0.4,0.5-0.9,0.3-1.4c-0.2-0.5-0.6-0.8-1-0.9l-3.1-0.5
			l-1.4-2.9C45,18,44.5,17.7,44,17.7c-0.5,0-1,0.3-1.2,0.8l-1.4,2.9l-3.1,0.5c-0.5,0.1-0.9,0.4-1,0.9c-0.2,0.5,0,1,0.3,1.4l2.3,2.3
			l-0.3,1.9c-1.8,1.6-3.8,2.9-6,3.8c-0.4,0.2-0.6,0.7-0.5,1.1c0.6,1.4,1.8,2.4,3.2,2.8c-1.7,2-3.8,3.5-6.1,4.5
			c-0.4,0.2-0.6,0.6-0.5,1c0.6,1.4,1.8,2.5,3.2,2.9c-1.4,1.6-3.3,2.9-5.3,3.7c-0.4,0.2-0.6,0.6-0.5,1c0.4,1.3,1.2,2.4,2.3,3.2
			c-1.8,2.5-4.2,4.5-6.9,6c-0.3,0.2-0.5,0.6-0.4,0.9C22.7,61.6,24.7,63.2,27.1,63.3z M32.2,60.7c-0.5,0-0.8-0.4-0.8-0.8
			s0.4-0.8,0.8-0.8s0.8,0.4,0.8,0.8S32.7,60.7,32.2,60.7z M55,59.9c0-0.5,0.4-0.8,0.8-0.8c0.5,0,0.8,0.4,0.8,0.8s-0.4,0.8-0.8,0.8
			C55.3,60.7,55,60.3,55,59.9z M39.3,23.4l2.6-0.4c0.4-0.1,0.8-0.3,1-0.7l1.1-2.4l1.1,2.4c0.2,0.4,0.6,0.7,1,0.7l2.6,0.4l-1.9,1.9
			c-0.3,0.3-0.4,0.7-0.4,1.1l0.4,2.7l-2.2-1.2c-0.4-0.2-0.9-0.2-1.2,0l-2.2,1.2l0.4-2.7c0.1-0.4-0.1-0.8-0.4-1.1L39.3,23.4z
			 M35.1,33.3c1.6-0.7,3.1-1.7,4.4-2.7c0.1,0.2,0.2,0.3,0.4,0.4c0.4,0.3,0.9,0.3,1.4,0.1l2.7-1.5l2.7,1.5c0.4,0.2,1,0.2,1.4-0.1
			c0.2-0.1,0.3-0.3,0.4-0.4c1.4,1.1,2.9,2,4.4,2.7c-0.6,0.9-1.7,1.3-2.8,1.3c-0.8-0.1-1.7-0.3-2.4-0.7c-0.3-0.1-0.6-0.1-0.8,0
			c-0.2,0.2-0.4,0.4-0.4,0.7c-0.1,0.8-0.5,1.6-1.1,2.2c-0.9-0.6-2-0.6-2.9,0c-0.6-0.6-1-1.3-1.1-2.2c0-0.3-0.2-0.6-0.4-0.7
			c-0.2-0.2-0.6-0.2-0.8,0c-0.7,0.4-1.6,0.6-2.4,0.7C36.8,34.6,35.7,34.1,35.1,33.3L35.1,33.3z M44.8,38.8c0,0.5-0.4,0.8-0.8,0.8
			c-0.5,0-0.8-0.4-0.8-0.8s0.4-0.8,0.8-0.8C44.5,37.9,44.8,38.3,44.8,38.8z M31.7,41.7c2.6-1.3,4.9-3.2,6.7-5.5
			c0.6-0.1,1.1-0.2,1.7-0.4c0.3,0.9,0.9,1.7,1.6,2.4c-0.3,1,0.1,2.1,1,2.8c0.9,0.6,2.1,0.6,2.9,0c0.9-0.6,1.3-1.7,1-2.8
			c0.7-0.7,1.2-1.5,1.6-2.4c0.5,0.2,1.1,0.3,1.7,0.4c1.8,2.3,4,4.2,6.7,5.5c-0.7,0.8-1.7,1.3-2.8,1.3c-0.1,0-0.2,0-0.2,0
			c-1.6,0.1-3.2-0.4-4.5-1.4c-0.2-0.2-0.5-0.3-0.8-0.2c-0.3,0.1-0.5,0.3-0.6,0.6c0,0-0.7,3.5-3.4,5.1c-2.6-1.6-3.4-5.1-3.4-5.1
			c-0.1-0.3-0.3-0.5-0.6-0.6c-0.3-0.1-0.6,0-0.8,0.2c-1.3,1-2.9,1.5-4.5,1.4c-0.1,0-0.2,0-0.3,0C33.3,43,32.4,42.5,31.7,41.7
			L31.7,41.7z M34.8,44.7c1.6,0,3.1-0.4,4.5-1.2c0.7,2.2,2.3,4.1,4.3,5.3c0.2,0.1,0.5,0.1,0.8,0c2.1-1.2,3.6-3,4.3-5.3
			c1.4,0.8,2.9,1.2,4.5,1.2c1.4,2.1,3.5,3.7,5.8,4.7c-0.4,0.8-1.1,1.5-1.9,1.9c-0.4,0.1-0.8,0.2-1.2,0.2c-0.9,0-1.7-0.1-2.6-0.4
			c0-0.1,0-0.3,0-0.4c0-1.2-0.9-2.3-2.1-2.5c-1.2-0.2-2.4,0.5-2.8,1.6c-0.4,1.2,0.1,2.5,1.1,3.1c-0.3,0.9-0.8,1.8-1.4,2.6
			c-1.3-1-2.5-2.2-3.4-3.6c-0.2-0.2-0.4-0.4-0.7-0.4c-0.3,0-0.5,0.1-0.7,0.4c-0.9,1.4-2.1,2.6-3.4,3.6c-0.6-0.8-1.1-1.6-1.4-2.6
			c1.1-0.6,1.6-2,1.1-3.2c-0.5-1.2-1.8-1.8-3.1-1.4c-1.2,0.4-2,1.6-1.8,2.9c-0.8,0.3-1.7,0.4-2.6,0.4c-0.4,0-0.8-0.1-1.2-0.2
			c-0.8-0.4-1.5-1-1.9-1.9C31.4,48.4,33.4,46.8,34.8,44.7L34.8,44.7z M50.8,51.4c-0.5,0-0.8-0.4-0.8-0.8c0-0.5,0.4-0.8,0.8-0.8
			c0.5,0,0.8,0.4,0.8,0.8C51.6,51.1,51.2,51.4,50.8,51.4z M36.4,50.6c0-0.5,0.4-0.8,0.8-0.8c0.5,0,0.8,0.4,0.8,0.8
			c0,0.5-0.4,0.8-0.8,0.8C36.8,51.4,36.4,51.1,36.4,50.6z M31,53c0.4,0.1,0.8,0.1,1.2,0.1c1.2,0,2.3-0.2,3.4-0.6
			c0.3,0.3,0.8,0.5,1.2,0.6c0.4,1.5,1.3,2.9,2.4,4c0.3,0.3,0.7,0.3,1.1,0.1c1.4-1,2.7-2.2,3.8-3.5c1.1,1.3,2.3,2.5,3.8,3.5
			c0.3,0.2,0.8,0.2,1.1-0.1c1.1-1.1,1.9-2.5,2.4-4c0.5-0.1,0.9-0.3,1.2-0.6c1.1,0.4,2.3,0.6,3.4,0.6c0.4,0,0.8-0.1,1.2-0.1
			c1.9,2.6,4.3,4.8,7.1,6.4c-0.5,1.3-1.8,2.2-3.2,2.2c-1,0-1.9-0.2-2.7-0.7c0.5-1.3-0.1-2.7-1.3-3.3c-1.3-0.6-2.7,0-3.3,1.2
			c-0.6,1.2-0.1,2.7,1.2,3.3c-0.2,1-0.5,1.9-1,2.8c-1.9-0.3-3.7-1.4-4.8-3c-0.2-0.3-0.5-0.4-0.9-0.3c-0.3,0.1-0.6,0.3-0.6,0.7
			c-0.5,1.8-1.7,3.4-3.4,4.3c-1.7-0.9-2.9-2.4-3.4-4.3c-0.1-0.3-0.3-0.6-0.6-0.7c-0.3-0.1-0.7,0-0.9,0.3c-1.1,1.6-2.9,2.7-4.8,3
			c-0.5-0.9-0.8-1.8-1-2.8c1.2-0.6,1.7-2.1,1.2-3.3c-0.6-1.2-2.1-1.8-3.3-1.2c-1.3,0.6-1.8,2-1.3,3.3c-0.8,0.5-1.8,0.7-2.7,0.7
			c-1.4,0-2.7-0.9-3.2-2.2C26.7,57.8,29.1,55.6,31,53z"/>
		<path d="M44,61.6c1.4,0,2.5-1.1,2.5-2.5c0-1.4-1.1-2.5-2.5-2.5c-1.4,0-2.5,1.1-2.5,2.5C41.5,60.4,42.6,61.6,44,61.6z M44,58.2
			c0.5,0,0.8,0.4,0.8,0.8s-0.4,0.8-0.8,0.8c-0.5,0-0.8-0.4-0.8-0.8S43.5,58.2,44,58.2z"/>
		<circle id="Oval" cx="37.2" cy="59" r="0.8"/>
		<circle cx="50.8" cy="59" r="0.8"/>
		<circle cx="55.8" cy="54.8" r="0.8"/>
		<circle cx="32.2" cy="54.8" r="0.8"/>
		<circle cx="49.9" cy="39.6" r="0.8"/>
		<circle cx="38.1" cy="39.6" r="0.8"/>
	</g>
</g>
</svg>
